<?xml version="1.0" standalone="no"?>
<!DOCTYPE svg PUBLIC "-//W3C//DTD SVG 20010904//EN"
 "http://www.w3.org/TR/2001/REC-SVG-20010904/DTD/svg10.dtd">
<svg version="1.0" xmlns="http://www.w3.org/2000/svg"
 width="2048.000000pt" height="2048.000000pt" viewBox="0 0 2048.000000 2048.000000"
 preserveAspectRatio="xMidYMid meet">

<g transform="translate(0.000000,2048.000000) scale(0.100000,-0.100000)"
fill="#000000" stroke="none">
<path d="M8530 18784 c-14 -3 -81 -18 -150 -35 -153 -36 -321 -115 -455 -216
-119 -88 -358 -330 -467 -471 -251 -325 -582 -887 -664 -1127 -22 -64 -28 -99
-28 -172 l-1 -92 60 -117 c63 -123 122 -190 210 -237 58 -31 164 -29 269 7 99
34 136 55 316 181 165 116 262 175 338 204 l52 21 0 -30 c0 -99 -97 -695 -195
-1196 -41 -210 -75 -400 -75 -421 0 -38 -2 -39 -67 -72 -96 -46 -337 -190
-475 -283 -665 -444 -1262 -1127 -1664 -1903 -281 -542 -474 -1141 -563 -1750
-91 -623 -67 -1322 70 -1970 95 -454 236 -859 444 -1280 232 -469 473 -846
753 -1179 172 -205 439 -455 702 -658 73 -56 368 -261 389 -270 4 -2 -1 -64
-11 -138 -40 -295 -33 -817 12 -995 30 -116 109 -253 182 -317 54 -46 67 -53
103 -52 79 2 216 122 326 287 119 178 303 596 316 718 3 32 8 59 11 59 3 0 55
-16 116 -36 144 -47 457 -125 617 -155 l126 -24 6 -130 c20 -412 147 -841 373
-1260 76 -139 214 -358 236 -371 6 -4 26 12 47 37 19 24 59 69 88 100 29 30
64 81 77 112 29 64 130 218 151 230 45 25 491 658 667 946 l58 95 0 -160 c0
-382 -60 -782 -150 -998 -43 -103 -214 -358 -306 -457 -41 -43 -74 -82 -74
-87 0 -5 -36 -48 -80 -97 -45 -48 -79 -93 -77 -99 2 -6 34 -34 72 -62 286
-215 735 -424 1405 -653 426 -146 420 -144 553 -228 258 -162 461 -273 499
-273 23 0 27 7 51 103 61 236 89 354 92 382 2 17 10 57 18 90 29 114 77 372
132 710 30 187 70 412 88 500 l32 160 8 -130 c11 -181 1 -753 -17 -909 -24
-216 -76 -536 -102 -631 -13 -49 -44 -153 -68 -230 l-45 -140 32 -34 c49 -51
232 -195 337 -265 52 -35 169 -105 260 -156 91 -51 217 -122 280 -158 63 -35
237 -144 385 -242 402 -265 531 -332 700 -367 71 -15 93 -15 141 -5 126 26
183 99 361 462 136 278 198 379 296 486 l64 69 -91 106 c-115 135 -168 228
-210 369 -44 151 -150 600 -142 607 1 2 25 -32 51 -75 61 -96 128 -189 138
-191 4 0 12 -1 18 -1 5 0 17 -17 25 -37 18 -42 71 -103 91 -103 7 0 23 -14 35
-30 12 -17 47 -50 78 -72 30 -23 100 -85 156 -137 65 -63 125 -109 170 -132
l69 -37 210 132 c271 169 521 340 649 442 245 197 448 458 620 803 54 106 139
302 134 306 -2 1 -97 -4 -213 -12 -208 -14 -334 -12 -430 7 -27 5 -88 17 -135
26 -46 8 -127 29 -180 46 -190 61 -593 251 -745 353 -80 54 -205 160 -205 175
0 10 139 48 241 66 42 7 197 20 345 29 441 25 614 44 759 81 101 26 266 95
288 120 11 13 25 24 31 24 41 0 180 104 280 210 45 46 131 136 192 200 l111
116 7 73 c3 40 10 81 15 90 24 44 32 1233 11 1551 -58 880 -248 1508 -597
1971 -238 316 -579 543 -933 621 -94 20 -131 23 -350 23 -209 -1 -263 -4 -370
-23 -132 -24 -367 -82 -459 -113 -30 -11 -55 -18 -57 -16 -1 1 15 72 36 157
68 280 118 591 141 892 17 224 7 678 -20 873 -55 402 -139 736 -277 1094 -37
95 -43 121 -39 160 7 56 -10 94 -47 101 -21 4 -37 27 -93 135 -251 483 -510
837 -895 1226 -689 695 -1342 1120 -2164 1411 -210 74 -471 155 -656 202 -107
28 -199 59 -261 89 -302 143 -661 232 -1034 257 -306 21 -736 -17 -1075 -94
-58 -13 -106 -24 -107 -23 -1 1 28 117 63 257 81 320 123 531 168 830 122 821
147 1398 76 1760 -48 243 -120 354 -285 438 -88 45 -92 46 -195 48 -58 1 -116
0 -130 -2z m163 -445 c48 -13 59 -36 84 -184 24 -147 24 -561 0 -820 -59 -614
-137 -1084 -257 -1550 -51 -196 -77 -328 -82 -404 l-3 -43 -105 -38 c-58 -20
-122 -44 -143 -53 -36 -15 -38 -15 -33 1 23 77 162 857 218 1222 17 113 17
441 0 497 -20 68 -70 124 -147 166 -69 37 -71 37 -165 33 -113 -5 -265 -43
-365 -91 -67 -32 -103 -55 -388 -248 -71 -48 -135 -87 -143 -87 -25 0 -15 53
25 136 99 205 390 664 541 854 342 430 729 674 963 609z m1368 -3219 c221 -22
599 -104 599 -130 0 -4 25 -26 55 -48 52 -39 69 -45 362 -118 296 -74 614
-168 849 -253 128 -45 371 -143 412 -165 26 -15 23 -15 -54 -16 -216 -1 -710
-43 -1019 -86 -353 -50 -944 -182 -987 -220 -11 -11 -38 -48 -59 -84 -46 -75
-67 -105 -72 -99 -16 19 -121 205 -193 339 -166 313 -294 605 -363 828 l-19
62 193 0 c106 0 239 -5 296 -10z m-871 -54 c0 -31 101 -317 160 -456 155 -364
434 -881 640 -1190 202 -302 389 -530 634 -776 629 -629 1489 -1139 2210
-1309 159 -38 346 -63 556 -75 590 -34 1180 101 1478 338 24 19 47 31 52 26 8
-9 52 -146 48 -149 -2 -1 -21 -7 -43 -13 -26 -7 -75 -41 -135 -93 -298 -255
-491 -363 -875 -489 -371 -121 -715 -168 -1145 -157 -845 23 -1679 316 -2368
831 -180 135 -289 231 -444 387 -289 293 -517 626 -734 1074 -288 594 -423
1147 -412 1694 l3 167 -32 49 -32 50 37 13 c20 7 100 28 177 47 205 49 225 52
225 31z m-752 -246 c-24 -126 3 -580 48 -830 127 -698 555 -1595 1030 -2164
350 -418 891 -833 1429 -1096 618 -303 1243 -454 1875 -453 356 0 661 37 1003
123 500 125 814 274 1131 534 91 75 116 91 120 78 3 -9 12 -68 21 -131 l15
-113 -39 -37 c-21 -20 -77 -81 -124 -136 -375 -440 -933 -811 -1577 -1050
-373 -138 -668 -196 -1087 -214 -660 -28 -1273 83 -1877 341 -812 345 -1562
1016 -2038 1823 -358 608 -609 1331 -715 2060 -14 98 -18 194 -18 524 l0 403
75 45 c113 67 458 236 605 297 72 29 131 53 132 52 1 0 -3 -26 -9 -56z m-1164
-1326 c113 -854 458 -1761 957 -2511 340 -513 834 -1002 1374 -1360 559 -371
1243 -629 1875 -707 898 -111 1756 36 2554 436 391 196 705 416 984 691 l113
111 -6 -54 c-3 -30 -12 -120 -20 -199 -8 -79 -15 -150 -15 -157 0 -8 -10 -14
-22 -14 -32 0 -34 -3 -123 -115 -281 -357 -484 -578 -652 -712 -354 -282 -993
-574 -1492 -682 -86 -19 -99 -20 -150 -7 -299 76 -687 64 -1066 -35 l-111 -28
-104 14 c-464 65 -893 187 -1315 374 -340 151 -710 390 -1053 678 -155 131
-462 431 -462 453 0 18 -24 43 -51 53 -9 3 -65 63 -124 134 -424 507 -846
1198 -1117 1834 -135 315 -288 779 -288 871 0 23 -6 49 -14 57 -28 31 -99 442
-136 786 -20 185 -21 192 -61 270 l-41 80 88 83 c118 111 270 244 369 322 l80
63 6 -304 c4 -182 13 -352 23 -425z m5700 554 c134 -90 294 -206 343 -248 l31
-28 -101 -7 c-370 -24 -655 -69 -1042 -166 -506 -127 -1032 -292 -1343 -423
-72 -31 -134 -56 -136 -56 -9 0 -210 245 -291 355 -88 118 -197 275 -235 340
l-24 39 34 -21 c19 -11 85 -46 145 -77 l110 -56 235 54 c536 124 929 170 1727
200 358 13 336 7 388 116 16 33 31 60 34 60 3 0 59 -37 125 -82z m878 -735
c185 -186 344 -361 336 -369 -2 -1 -33 1 -68 6 -99 15 -345 12 -477 -5 -345
-44 -745 -144 -1043 -262 -198 -78 -537 -242 -567 -275 -11 -12 -40 -66 -63
-118 -23 -52 -46 -99 -50 -103 -21 -23 -508 306 -745 503 -120 100 -119 90 -7
134 249 98 869 289 1202 370 311 75 548 109 885 126 121 7 236 17 255 24 26 8
41 23 57 54 12 24 29 54 38 68 9 13 13 29 10 34 -11 17 5 31 23 21 9 -5 106
-99 214 -208z m-7397 -163 c14 -118 37 -273 50 -345 14 -71 28 -148 31 -171
l6 -40 -198 -69 c-110 -37 -297 -107 -416 -155 -120 -47 -218 -86 -218 -84 0
24 150 317 241 471 130 219 241 380 399 582 78 100 67 118 105 -189z m7575
-640 c111 -13 219 -41 330 -85 99 -41 116 -40 155 7 14 17 27 29 29 27 32 -39
196 -350 196 -372 0 -21 -87 -103 -160 -151 -244 -163 -547 -236 -970 -236
-452 0 -842 82 -1275 266 -129 55 -136 59 -104 65 19 4 100 40 180 81 294 150
551 247 844 318 333 81 563 104 775 80z m-7334 -452 c20 -62 59 -171 86 -242
26 -70 48 -132 48 -136 0 -4 -14 -10 -32 -14 -18 -3 -91 -35 -163 -70 -228
-112 -384 -226 -565 -412 -280 -289 -514 -612 -700 -964 l-71 -135 4 310 c6
391 34 627 118 1005 24 110 95 375 114 427 3 9 19 7 61 -7 31 -11 68 -20 81
-20 13 0 142 49 286 109 221 91 410 162 647 244 25 8 46 16 47 16 1 1 18 -50
39 -111z m393 -935 c44 -87 118 -226 164 -310 l84 -152 -31 -6 c-112 -24 -459
-266 -637 -446 -346 -349 -700 -958 -845 -1454 -36 -122 -104 -440 -104 -484
0 -41 -16 -13 -63 109 -105 271 -183 538 -240 816 -53 256 -51 230 -13 252 28
17 54 62 179 313 225 455 442 764 752 1074 190 191 337 294 565 397 58 26 106
47 107 48 1 0 38 -71 82 -157z m711 -1188 c35 -50 99 -135 142 -190 42 -55 74
-103 70 -107 -4 -3 -47 -24 -97 -46 -209 -92 -381 -209 -545 -372 -245 -242
-454 -546 -656 -950 -170 -341 -275 -612 -348 -900 -23 -91 -45 -166 -50 -168
-16 -6 -192 255 -321 477 l-77 134 31 24 c35 28 88 127 114 213 9 30 28 123
42 205 77 448 184 718 443 1115 182 279 327 450 517 609 94 78 284 207 379
257 35 18 62 41 73 61 l17 32 101 -152 c55 -84 129 -193 165 -242z m845 -950
c55 -50 133 -117 173 -150 39 -32 72 -62 72 -65 0 -3 -53 -30 -117 -60 -142
-66 -296 -157 -398 -236 -270 -206 -556 -588 -770 -1029 -154 -317 -238 -560
-320 -925 -32 -140 -36 -172 -28 -212 7 -34 6 -45 -1 -39 -6 4 -58 43 -115 86
-158 119 -367 305 -473 421 l-26 29 24 140 c66 379 168 683 348 1045 195 391
444 734 682 941 144 125 287 210 519 310 l110 47 110 -107 c61 -58 155 -147
210 -196z m6240 -136 c-8 -22 -19 -58 -25 -79 -8 -31 -25 -49 -88 -96 -328
-247 -594 -641 -696 -1034 -29 -111 -53 -245 -61 -350 -11 -135 -10 -134 -67
-45 -149 234 -360 460 -575 617 l-62 46 92 32 c372 131 783 337 1035 518 134
97 270 219 371 334 47 53 87 97 88 97 1 1 -4 -17 -12 -40z m-5305 -547 c58
-33 126 -70 152 -83 54 -26 58 -38 58 -168 0 -215 -81 -524 -210 -797 -133
-285 -558 -955 -768 -1214 -178 -218 -166 -197 -172 -308 -5 -90 -6 -97 -25
-94 -73 11 -425 133 -615 214 -165 70 -432 207 -446 229 -3 5 3 29 14 52 41
84 51 118 87 284 111 507 287 896 582 1292 125 167 321 360 458 450 99 65 277
159 427 225 51 22 61 31 84 79 l27 54 121 -77 c66 -43 168 -105 226 -138z
m790 -357 l65 -22 3 -109 c5 -180 6 -178 -101 -266 -51 -42 -149 -133 -219
-203 l-127 -128 54 159 c60 176 114 422 122 555 l6 87 66 -25 c36 -14 95 -35
131 -48z m6190 -1782 c-62 -210 -144 -351 -246 -418 -54 -36 -152 -77 -212
-88 l-32 -7 50 75 c66 98 119 162 261 320 65 72 136 154 160 182 23 29 44 51
47 48 2 -2 -10 -53 -28 -112z m-7300 -249 c-14 -37 -75 -272 -90 -345 l-11
-56 -47 8 c-26 5 -70 14 -99 20 l-52 10 102 127 c57 70 125 159 152 199 27 39
51 70 53 69 1 -2 -2 -16 -8 -32z m-1409 -468 c79 -35 151 -66 159 -69 17 -5
19 -5 -57 -27 -47 -14 -47 -15 -112 -178 -41 -102 -109 -244 -139 -291 l-16
-24 -7 24 c-19 69 -1 629 21 629 4 0 72 -29 151 -64z m4218 -953 c54 -156 71
-232 70 -323 -1 -119 -9 -125 -51 -34 -41 90 -73 189 -83 257 -8 54 3 217 15
217 4 0 26 -53 49 -117z"/>
</g>
</svg>
